<svg width="141" height="140" viewBox="0 0 141 140" fill="none" xmlns="http://www.w3.org/2000/svg"><g filter="url(#filter0_d_83_929)"><path d="M102.342 72.898c2.958 0 4.698 0 4.698-1.218 0-.957-5.394-5.481-6.177-5.481-.783 0-2.697 3.219-3.219 3.741-.609.609-.957.609-4.611.609h-7.308c-.957 0-2.784 0-2.784-2.349 0-3.132.435-3.654 1.218-4.263 1.479-1.305 1.653-1.479 1.653-2.001 0-.87-.348-1.044-4.002-2.61-1.479-.609-2.871-.957-3.915-.957-.696 0-.87.174-.87.783 0 .522.435 2.958.435 3.48.261 2.262.435 4.872.435 5.481 0 2.436-1.653 2.436-2.871 2.436h-2.088c-4.872 0-9.396-.174-11.919-.261-.609 0-3.219-.348-3.828-.348-.087 0-.261.087-.261.261 0 .087 0 .087.348.522l1.653 2.001c.348.435.522.609.783.609.348 0 1.566-.174 1.827-.261 1.827-.087 7.395-.261 9.396-.261 1.044 0 2.697 0 2.697 1.566 0 1.827-7.134 11.397-9.831 14.616-1.74 2.175-12.267 12.441-12.267 12.702 0 .087.087.174.174.174.696 0 6.786-2.61 13.92-9.483 3.828-3.654 6.612-6.873 9.831-10.527.261-.348.609-.783 1.305-.783.609 0 .957.348.957.609 0 3.828-.87 20.967-.87 24.447 0 1.653.522 3.393 2.262 3.393 4.176 0 4.176-3.915 4.176-5.22 0-3.306-.435-17.835-.435-20.793 0-4.698 0-4.959.696-4.959.609 0 .696.261 1.218 1.653 5.481 13.398 15.138 22.968 16.356 22.968.522 0 2.349-1.914 2.697-2.175 2.001-1.218 3.306-1.392 5.742-1.479.435-.087 1.392-.174 1.392-.783 0-.348-.696-.696-1.914-1.392-6.786-3.654-12.789-7.308-20.88-17.487-.783-1.044-3.654-4.698-3.654-5.481 0-.957.783-1.479 1.827-1.479h16.008zM80.418 40.795c0-.957 1.218-1.131 2.349-1.305 2.088-.348 14.79-2.349 16.008-2.349 1.653 0 3.045-.174 3.045-1.479 0-1.044-1.305-1.653-2.175-2.175-.522-.261-5.568-2.871-5.742-2.871-.783 0-4.002 2.349-4.785 2.697-5.916 2.61-13.311 4.002-23.751 6.09-3.306.609-3.741.696-3.741 1.044 0 .435.348.435 3.219.435 1.653 0 9.918-.609 11.832-.609 1.131 0 1.653.348 2.175 1.218.783 1.305 1.653 4.959 1.914 8.439.261 3.567.435 4.959 2.523 4.959 1.653 0 3.48-1.74 3.48-4.089 0-3.48-3.915-7.134-4.872-8.091-.87-.783-1.479-1.392-1.479-1.914zM56.232 50.887c2.871 0 4.611 0 4.611-1.218 0-.87-3.741-4.785-4.872-4.785-.957 0-1.131.435-2.175 2.088-.696 1.218-1.305 1.479-2.349 1.479-1.914 0-1.914-1.827-1.914-2.871 0-1.914 0-7.482.696-8.874.261-.435 2.001-2.088 2.001-2.61 0-.957-.522-1.218-2.784-2.001-.87-.348-5.307-1.914-5.742-1.914-.609 0-1.044.261-1.044.696 0 .348.609 1.74.696 2.001.522 2.61.522 10.353.522 13.311 0 1.566-.957 2.349-2.349 2.349-1.74 0-9.222-.609-10.701-.609-.174 0-.348.087-.348.261 0 .087 0 .087.348.522l1.74 2.001c.261.348.435.609.783.609.174 0 1.044-.174 1.218-.174 1.479-.174 5.046-.261 6.699-.261 2.088 0 2.697.696 2.697 2.697 0 12.18 0 13.572-.696 14.703-.696 1.044-1.044 1.131-3.219 1.914-4.176 1.392-6.612 2.175-8.178 2.175-.696 0-1.827 0-1.827.522 0 .87.783 2.175 2.697 5.568 1.044 1.74 1.218 2.088 2.001 2.088.609 0 2.436-2.349 2.958-2.697.87-.696 4.263-2.175 4.611-2.175 1.74 0 1.74.87 1.74 7.743 0 1.827 0 15.225-.087 15.834-.174 1.914-1.653 2.349-3.828 2.349-.609 0-3.219-.087-3.741-.087-.522 0-1.653 0-1.653.522 0 .609 2.784 2.349 3.132 2.784.435.522 1.827 3.132 2.262 3.567.348.435.957 1.044 2.001 1.044 2.349 0 5.133-2.175 6.003-3.306 1.218-1.566 1.653-3.48 1.653-6.699 0-2.349-.348-12.963-.348-15.051-.087-3.132-.087-6.264-.087-9.309 0-3.48.696-3.915 5.655-6.786 6.351-3.741 8.7-4.959 8.7-5.829 0-.261-.348-.261-.522-.261-1.044 0-10.962 4.263-12.354 4.263-1.305 0-1.392-.957-1.392-2.088V53.41c0-2.523 1.392-2.523 3.132-2.523h3.654zm47.415-9.309c-.609-.348-3.045-1.914-3.48-1.914-.087 0-.261 1.392-.348 1.566-.261 2.349-2.784 6.873-4.176 9.396-.696 1.305-5.133 8.004-5.133 8.439 0 .087.087.174.261.174 2.262 0 13.572-12.18 14.964-12.876 1.827-.957 2.001-1.044 2.001-1.566 0-.609-.435-.87-4.089-3.219zM71.109 52.975c-.348-2.697-1.566-4.959-6.264-8.961-1.827-1.566-2.088-1.566-2.523-1.566-.087 0-.261 0-.261.261s.087.435 1.044 2.61c.957 2.088 1.131 4.002 1.218 6.177.261 4.524.348 6.873 3.045 6.873 2.523 0 4.089-2.697 3.741-5.394z" fill="#fff"/></g><defs><filter id="filter0_d_83_929" x=".045" y=".181" width="140.91" height="139.344" filterUnits="userSpaceOnUse" color-interpolation-filters="sRGB"><feFlood flood-opacity="0" result="BackgroundImageFix"/><feColorMatrix in="SourceAlpha" values="0 0 0 0 0 0 0 0 0 0 0 0 0 0 0 0 0 0 127 0" result="hardAlpha"/><feOffset/><feGaussianBlur stdDeviation="15"/><feComposite in2="hardAlpha" operator="out"/><feColorMatrix values="0 0 0 0 0.00941442 0 0 0 0 0.000555556 0 0 0 0 0.0333333 0 0 0 0.3 0"/><feBlend in2="BackgroundImageFix" result="effect1_dropShadow_83_929"/><feBlend in="SourceGraphic" in2="effect1_dropShadow_83_929" result="shape"/></filter></defs></svg>