<svg width="133" height="138" viewBox="0 0 133 138" fill="none" xmlns="http://www.w3.org/2000/svg"><g filter="url(#filter0_d_83_931)"><path d="M61.671 77.51c2.088 0 2.697.87 2.697 2.784 0 3.654-.522 19.662-.522 22.881 0 1.131.087 2.262 1.827 2.262s3.306-.87 4.089-1.566c.609-.609.87-1.218.87-2.871 0-6.699 0-13.833-.087-20.097-.087-2.523.348-3.393 2.697-3.393h17.661c.957 0 2.262 0 2.61 1.566.174.696.174 6.786.174 7.917 0 11.049-.087 12.006-3.48 12.006-1.218 0-6.699-.435-7.83-.435-.435 0-1.044.174-1.044.522 0 .522 1.305.783 1.566.87.783.174 6.09 2.001 7.308 5.133.609 1.74.696 1.914 1.479 1.914 8.091 0 8.091-9.657 8.091-13.485 0-7.395-.522-39.498-.522-46.632 0-8.265.261-8.352 2.262-9.396.696-.348 1.392-.87 1.392-1.653 0-1.392-6.351-4.959-7.047-4.959-.609 0-.696.174-2.175 1.74-.609.609-1.131 1.044-3.045 1.044H48.099c-2.784 0-3.828-.435-6.873-2.001-.957-.435-3.393-1.479-4.35-1.479-.522 0-.609.174-.609.696 0 .174.609 5.133.696 6.09.609 6.438.783 20.706.783 27.579 0 21.663-1.479 29.319-5.046 36.714-.348.696-2.436 4.089-2.436 4.176 0 .174.174.435.522.435 1.305 0 10.962-9.309 12.441-24.534.348-3.132.348-3.828 2.871-3.828h15.573zM46.185 53.498c-2.61 0-2.697 0-2.697-9.918 0-7.221 0-7.569 2.61-7.569h15.834c2.61 0 2.61.261 2.61 8.7 0 8.787 0 8.787-2.61 8.787H46.185zm-.087 21.663c-2.523 0-2.523-1.653-2.523-3.045 0-2.001 0-14.268.087-14.703.348-1.392 1.479-1.566 2.436-1.566h15.834c2.61 0 2.61.348 2.61 8.091 0 1.131 0 9.483-.348 10.179-.435.957-1.479 1.044-2.262 1.044H46.098zm44.631-19.314c2.697 0 2.784.174 2.784 12.963 0 5.742 0 6.351-2.61 6.351H73.155c-.609 0-1.914 0-2.349-1.131-.348-.696-.348-8.526-.348-9.918 0-8.004 0-8.265 2.697-8.265h17.574zm-.435-19.836c2.784 0 2.871 0 2.871 11.571 0 4.959 0 5.916-2.697 5.916H73.155c-2.697 0-2.697-1.479-2.697-3.306 0-2.088 0-12.093.087-12.615.348-1.392 1.479-1.566 2.61-1.566h17.139z" fill="#fff"/></g><defs><filter id="filter0_d_83_931" x=".264" y=".182" width="132.645" height="136.821" filterUnits="userSpaceOnUse" color-interpolation-filters="sRGB"><feFlood flood-opacity="0" result="BackgroundImageFix"/><feColorMatrix in="SourceAlpha" values="0 0 0 0 0 0 0 0 0 0 0 0 0 0 0 0 0 0 127 0" result="hardAlpha"/><feOffset/><feGaussianBlur stdDeviation="15"/><feComposite in2="hardAlpha" operator="out"/><feColorMatrix values="0 0 0 0 0.00941442 0 0 0 0 0.000555556 0 0 0 0 0.0333333 0 0 0 0.3 0"/><feBlend in2="BackgroundImageFix" result="effect1_dropShadow_83_931"/><feBlend in="SourceGraphic" in2="effect1_dropShadow_83_931" result="shape"/></filter></defs></svg>