<svg width="142" height="133" viewBox="0 0 142 133" fill="none" xmlns="http://www.w3.org/2000/svg"><g filter="url(#filter0_d_83_928)"><path d="M76.894 56.111c-1.74 0-2.349-.174-4.176-1.305-2.784-1.653-3.567-2.088-4.785-2.088-.609 0-.783.174-.783.87s.435 3.828.522 4.437c.087 1.305.087 3.045.087 4.959 0 3.48 0 14.268-.087 17.052-.087 1.566-.174 4.002-.174 4.524 0 1.479 0 3.306 2.001 3.306.87 0 3.915-.435 4.524-2.784.348-1.218.609-1.653 2.436-1.653h19.836c.783 0 1.914 0 2.175 1.827.087 1.044.261 2.088 2.349 2.088 1.827 0 4.35-1.305 4.35-3.828 0-.783-.261-2.436-.348-3.132-.435-3.741-.348-8.961-.348-17.052 0-2.697 0-3.219 1.044-4.176 1.305-1.131 1.479-1.218 1.479-1.74 0-1.218-4.611-3.654-6.003-3.654-.783 0-.957.174-1.827 1.131-.87.957-1.827 1.218-2.871 1.218H76.894zM96.556 66.29c2.175 0 2.175 1.131 2.175 3.219 0 1.74 0 2.871-2.175 2.871H75.937c-2.175 0-2.175-1.131-2.175-3.219 0-1.74 0-2.871 2.175-2.871h20.619zm-.174-7.917c.87 0 2.262 0 2.262 1.827 0 3.306 0 3.828-2.262 3.828H76.111c-.957 0-2.349 0-2.349-1.827 0-3.306 0-3.828 2.349-3.828h20.271zm0 16.269c2.262 0 2.262.783 2.262 3.045 0 2.784 0 3.48-2.262 3.48H76.285c-2.262 0-2.436-.522-2.436-4.524 0-1.914 1.131-2.001 2.349-2.001h20.184zm-6.09-35.148c-2.262 0-2.262-1.305-2.262-2.436 0-2.523 0-3.306 2.436-3.306h13.224c3.48 0 5.655 0 5.655-1.305 0-1.218-4.611-5.046-6.09-5.046-.696 0-.87.261-2.523 2.523-1.131 1.479-1.566 1.479-5.568 1.479h-4.698c-.957 0-2.262 0-2.262-1.566 0-.609.435-1.74.957-2.262 1.566-1.479 1.74-1.566 1.74-2.262 0-2.262-7.83-3.045-8.961-3.045-.348 0-.957.087-.957.609 0 .435.435 1.218.522 1.74.261 1.305.522 4.263.522 4.872 0 1.392-.609 1.914-2.175 1.914h-2.697c-4.089 0-7.656-.087-11.919-.261-.522-.087-3.219-.348-3.828-.348-.174 0-.348.087-.348.261 0 .087.261.348.435.522l1.653 2.001c.261.348.435.609.783.609.261 0 1.566-.174 1.827-.261.87 0 3.393-.174 10.962-.174h3.306c1.914 0 2.262.609 2.262 3.219 0 2.349-.783 2.523-2.958 2.523-.783 0-9.396-.348-10.179-.348-.435-.087-2.697-.261-3.132-.261-.261 0-.348 0-.348.174s.087.348.348.609l1.74 2.001c.261.348.435.522.783.522.174 0 1.044-.174 1.218-.174 2.784-.435 7.917-.261 10.614-.261 1.914 0 1.914 1.566 1.914 2.871 0 3.132 0 4.002-2.175 4.002h-2.175c-4.089 0-7.656-.087-11.919-.348-.609 0-3.306-.261-3.915-.261-.174 0-.261.087-.261.174 0 .174 0 .174.348.609l1.74 2.001c.261.348.435.522.696.522.261 0 1.566-.174 1.914-.174.783-.087 3.306-.261 10.962-.261h28.971c3.045 0 4.698 0 4.698-1.218 0-1.305-3.828-5.046-5.133-5.046-.783 0-3.132 3.306-3.915 3.654-.609.348-1.74.348-4.176.348h-7.569c-2.088 0-2.349-.348-2.349-3.567 0-2.523.087-3.306 2.262-3.306h10.092c2.871 0 4.611 0 4.611-1.218s-4.089-4.437-5.481-4.437c-.609 0-2.958 2.871-3.654 3.132-.696.261-1.74.261-4.089.261h-1.479zm-33.669 8.874c3.045 0 4.698 0 4.698-1.218 0-1.479-3.915-5.568-5.046-5.568-.696 0-.87.261-2.784 2.871-.522.783-1.392 1.392-2.175 1.392-1.914 0-1.914-1.827-1.914-5.568 0-8.613 0-8.7 2.349-9.048 1.218-.174 7.047-.696 7.569-.957.783-.348 1.044-1.044 1.044-1.479 0-1.827-5.133-5.916-6.438-5.916-.348 0-5.307 2.697-6.264 3.132-4.35 1.74-11.484 3.741-15.834 5.133-.522.174-1.74.435-1.74.696 0 .435 2.523.522 3.219.522 1.392 0 7.482-.261 8.7-.261 2.001 0 2.088.087 2.088 9.309 0 3.48 0 4.524-2.349 4.524-1.479 0-7.83-.435-9.135-.435-.087 0-.261 0-.261.174s0 .174.348.609l1.653 2.001c.261.348.522.522.783.522.609 0 4.611-.348 5.394-.348.957 0 1.827.174 1.827 1.392s-2.61 9.309-8.091 21.837c-.87 2.001-2.61 5.829-3.828 8.613 0 .174.087.261.348.261.957 0 8.787-10.701 11.049-14.268 1.044-1.653 1.218-1.914 1.566-1.914.522 0 .522.609.522 1.131 0 3.045-.348 18.618-.435 21.141-.087 2.001-.696 10.962-.696 12.528 0 1.74.435 2.871 2.523 2.871 4.437 0 4.437-4.35 4.437-7.134 0-3.741-.261-21.141-.261-24.708v-9.744c0-.522.174-.87.609-.87 1.305 0 4.176 6.699 4.872 10.179.522 2.262 1.131 3.306 2.436 3.306 1.479 0 3.306-1.479 3.306-4.437 0-4.524-4.35-7.83-9.309-11.484-1.827-1.392-1.914-2.088-1.914-5.046 0-2.61 0-3.741 2.697-3.741h4.437zM99.514 88.04c-2.61-.957-7.047-2.088-9.657-2.088-.261 0-.522 0-.522.174s2.001 1.305 2.262 1.479c5.829 3.393 10.527 8.091 12.876 11.397 2.001 2.697 2.871 2.871 4.002 2.871 2.436 0 3.132-2.175 3.132-3.654 0-3.306-2.436-6.699-12.093-10.179zm-17.661-.087c-1.044-.957-2.61-2.262-3.741-2.262-.348 0-.87.783-1.131 1.305-1.74 2.697-8.178 7.134-17.661 11.832-4.176 2.088-4.263 2.088-4.263 2.436 0 .174.174.174.261.174 1.044 0 11.397-2.523 19.314-5.568 1.044-.435 6.09-2.784 7.308-3.045 3.045-.522 3.393-.609 3.393-1.305s-.348-.87-3.48-3.567z" fill="#fff"/></g><defs><filter id="filter0_d_83_928" x=".088" y="-7.732" width="141.519" height="139.779" filterUnits="userSpaceOnUse" color-interpolation-filters="sRGB"><feFlood flood-opacity="0" result="BackgroundImageFix"/><feColorMatrix in="SourceAlpha" values="0 0 0 0 0 0 0 0 0 0 0 0 0 0 0 0 0 0 127 0" result="hardAlpha"/><feOffset/><feGaussianBlur stdDeviation="15"/><feComposite in2="hardAlpha" operator="out"/><feColorMatrix values="0 0 0 0 0.00941442 0 0 0 0 0.000555556 0 0 0 0 0.0333333 0 0 0 0.3 0"/><feBlend in2="BackgroundImageFix" result="effect1_dropShadow_83_928"/><feBlend in="SourceGraphic" in2="effect1_dropShadow_83_928" result="shape"/></filter></defs></svg>