<svg width="141" height="132" viewBox="0 0 141 132" fill="none" xmlns="http://www.w3.org/2000/svg"><g filter="url(#filter0_d_83_930)"><path d="M103.429 30.446c2.958 0 4.698 0 4.698-1.218 0-1.131-7.569-5.568-7.917-5.568-.783 0-2.871 3.306-3.48 3.828-.783.696-1.218.696-4.872.696H70.021c-2.175 0-7.656-.174-11.919-.348-.522 0-3.219-.261-3.828-.261-.174 0-.261 0-.261.174s0 .174.348.609l1.653 2.001c.348.348.522.522.783.522s1.566-.174 1.827-.174c1.479-.087 5.742-.261 7.917-.261 1.914 0 3.654 0 3.654 2.262 0 .87-1.479 7.395-1.827 8.787-.261 1.131-1.827 6.699-1.827 6.873 0 1.044 1.392 1.74 2.697 1.74 2.175 0 3.045-1.392 3.915-2.871.174-.348 1.392-.348 3.132-.348h3.567c1.305 0 2.523.435 2.523 2.436 0 4.002-.522 24.969-1.044 28.797-1.131 8.352-2.871 8.874-7.569 8.874-.261 0-1.74-.174-2.001-.174-.174 0-.696 0-.696.174s.696.609.87.696c2.175 1.392 3.915 2.871 4.35 4.176.435 1.218.609 1.74 1.479 1.74 1.74 0 4.176-1.827 5.394-4.002 3.828-6.699 3.828-20.793 3.828-31.581 0-8.178 0-9.135 1.392-9.918 1.566-.87 2.088-1.131 2.088-1.914 0-.957-4.872-4.002-5.307-4.002-.348 0-.957.522-1.74 1.218-1.131 1.044-1.74 1.218-4.176 1.218H76.72c-1.305 0-2.871 0-2.871-2.001 0-.261 1.305-6.438 2.001-9.657.522-2.523 1.218-2.523 2.61-2.523h24.969zm-35.67 64.293c-4.611 0-8.178-.087-11.919-.261-.522 0-3.219-.348-3.828-.348-.174 0-.261.087-.261.174 0 .174 0 .261.348.609l1.653 2.001c.348.348.435.522.783.522.261 0 1.566-.174 1.827-.174 2.523-.174 5.481-.261 10.962-.261h38.28c2.958 0 4.698.087 4.698-1.218 0-.435-6.612-6.003-7.656-6.003-.87 0-1.044.348-3.045 3.48-.957 1.479-1.914 1.479-5.568 1.479H67.759zm-1.131-36.366c-1.131 0-1.566-.087-2.871-.783-.435-.261-3.306-2.175-3.48-2.175-.261 0-.435.261-.435.696 0 .957.174 5.307.174 6.177 0 3.045-.435 16.53-.435 19.227 0 1.566 1.566 1.74 2.262 1.74 1.653 0 3.219-1.218 3.306-2.001.261-1.827.261-2.175 2.001-2.175 1.914 0 2.436 0 2.697.87.261 1.044.435 1.479 1.305 1.479 1.131 0 4.524-.783 4.524-3.045 0-1.566-.261-8.526-.261-10.005 0-.87 0-4.872.435-5.307 1.479-1.74 1.653-1.914 1.653-2.784 0-1.74-3.741-3.741-4.263-3.741-.348 0-1.653.957-1.914 1.218-.609.522-1.218.609-2.871.609h-1.827zm2.088 2.262c1.827 0 1.827.435 1.827 6.438 0 9.657-.087 9.657-1.827 9.657h-1.479c-.435 0-1.479 0-1.653-1.218-.174-.87-.174-6.351-.174-8.961 0-5.307 0-5.916 1.74-5.916h1.566zM56.71 43.496c2.871 0 4.611 0 4.611-1.131 0-1.479-4.785-5.133-5.655-5.133-.435 0-.783.522-1.566 1.827-1.044 1.566-1.74 2.088-2.871 2.088-2.262 0-2.262-2.088-2.262-2.697 0-1.566 0-9.048.174-9.657.087-.609 2.262-2.349 2.262-2.871 0-2.088-7.134-3.132-7.917-3.132-.261 0-.261.435-.261.609 0 .696.348 3.828.348 4.524 0 1.653.087 9.222.087 10.701 0 2.175-1.479 2.523-2.349 2.523-1.653 0-8.961-.522-10.527-.522-.087 0-.261 0-.261.174s0 .174.348.609l1.653 2.001c.348.348.522.522.783.522.522 0 5.829-.435 6.873-.435.783 0 2.175.609 2.175 2.262 0 4.437-6.09 20.358-8.265 25.665-.261.696-1.914 4.176-1.914 4.437 0 .087.087.087.174.087 1.479 0 10.875-15.138 11.049-15.138.174 0 .174.348.174.522 0 5.916-1.218 32.103-1.218 37.497 0 1.044 0 2.262 2.001 2.262 4.524 0 4.524-4.785 4.524-6.438 0-.174-.435-23.838-.435-28.275 0-1.914.174-10.179.174-11.919 0-.696.174-1.218.435-1.218.087 0 1.218.435 3.306 4.698 1.914 4.002 2.088 4.437 2.958 4.437 1.044 0 2.784-1.827 2.784-3.48 0-3.132-2.871-4.524-7.743-6.96-1.305-.609-1.653-.87-1.653-3.045 0-4.524.174-5.394 3.045-5.394h4.959zm32.538 12.963c.348.348.522.609.783.609.783 0 7.221-.435 8.439-.435 1.74 0 3.045 0 3.045 1.305 0 1.131-2.871 10.092-3.828 10.092-.522 0-7.221-6.525-8.613-6.525-.087 0-.261.174-.261.261 0 .174 7.047 9.57 7.047 10.701 0 2.262-8.874 13.485-8.874 13.485 0 .174.174.261.261.261 1.392 0 5.829-4.002 7.308-5.481.609-.609 3.306-4.002 3.654-4.002.435 0 1.479 1.914 1.914 2.697 3.393 6.264 3.828 6.96 5.307 6.96 1.653 0 2.436-1.305 2.436-2.958 0-4.611-2.697-7.395-5.481-10.353-.87-.87-1.131-1.131-1.131-1.653 0-.087 4.176-10.353 5.307-11.31.348-.348 2.262-1.392 2.523-1.653.174-.261.174-.435.174-.609 0-.696-3.654-5.568-4.785-5.568-.522 0-2.001 1.392-2.436 1.653-.522.261-1.044.348-1.653.348h-1.653c-1.74 0-9.57-.609-11.223-.609-.087 0-.261 0-.261.261 0 .087.087.261.348.522l1.653 2.001z" fill="#fff"/></g><defs><filter id="filter0_d_83_930" x=".523" y="-7.21" width="139.779" height="138.3" filterUnits="userSpaceOnUse" color-interpolation-filters="sRGB"><feFlood flood-opacity="0" result="BackgroundImageFix"/><feColorMatrix in="SourceAlpha" values="0 0 0 0 0 0 0 0 0 0 0 0 0 0 0 0 0 0 127 0" result="hardAlpha"/><feOffset/><feGaussianBlur stdDeviation="15"/><feComposite in2="hardAlpha" operator="out"/><feColorMatrix values="0 0 0 0 0.00941442 0 0 0 0 0.000555556 0 0 0 0 0.0333333 0 0 0 0.3 0"/><feBlend in2="BackgroundImageFix" result="effect1_dropShadow_83_930"/><feBlend in="SourceGraphic" in2="effect1_dropShadow_83_930" result="shape"/></filter></defs></svg>